<?xml version="1.0" encoding="UTF-8" standalone="no"?>
<svg
   xmlns:dc="http://purl.org/dc/elements/1.1/"
   xmlns:cc="http://creativecommons.org/ns#"
   xmlns:rdf="http://www.w3.org/1999/02/22-rdf-syntax-ns#"
   xmlns:svg="http://www.w3.org/2000/svg"
   xmlns="http://www.w3.org/2000/svg"
   xmlns:sodipodi="http://sodipodi.sourceforge.net/DTD/sodipodi-0.dtd"
   xmlns:inkscape="http://www.inkscape.org/namespaces/inkscape"
   t="1599370065986"
   class="icon"
   viewBox="0 0 1024 1024"
   version="1.1"
   p-id="1216"
   data-spm-anchor-id="a313x.7781069.0.i5"
   width="200"
   height="200"
   id="svg12"
   sodipodi:docname="Subscribe.svg"
   inkscape:version="0.92.4 (5da689c313, 2019-01-14)">
  <metadata
     id="metadata16">
    <rdf:RDF>
      <cc:Work
         rdf:about="">
        <dc:format>image/svg+xml</dc:format>
        <dc:type
           rdf:resource="http://purl.org/dc/dcmitype/StillImage" />
      </cc:Work>
    </rdf:RDF>
  </metadata>
  <sodipodi:namedview
     pagecolor="#ffffff"
     bordercolor="#666666"
     borderopacity="1"
     objecttolerance="10"
     gridtolerance="10"
     guidetolerance="10"
     inkscape:pageopacity="0"
     inkscape:pageshadow="2"
     inkscape:window-width="1920"
     inkscape:window-height="970"
     id="namedview14"
     showgrid="false"
     inkscape:zoom="1.18"
     inkscape:cx="100"
     inkscape:cy="100"
     inkscape:window-x="0"
     inkscape:window-y="0"
     inkscape:window-maximized="1"
     inkscape:current-layer="svg12" />
  <defs
     id="defs4">
    <style
       type="text/css"
       id="style2" />
  </defs>
  <path
     d="m 456.58546,168.07253 -307.36315,32.017 c -19.21019,0 -38.42039,19.2102 -38.42039,38.42039 L 78.784922,558.67987 c 0,12.80679 6.4034,25.61359 12.806798,38.4204 L 482.19906,968.4974 c 38.42038,38.4204 102.45438,38.4204 140.87477,0 L 885.61319,699.55465 c 38.42038,-38.4204 38.42038,-102.45438 0,-140.87478 L 495.00585,187.28273 c -12.80679,-19.2102 -25.6136,-19.2102 -38.42039,-19.2102 z m -83.24418,377.80053 c -44.82381,0 -76.84079,-32.01698 -76.84079,-76.84078 0,-44.82379 32.01698,-76.84079 76.84079,-76.84079 44.82378,0 76.84078,32.017 76.84078,76.84079 0,44.8238 -32.017,76.84078 -76.84078,76.84078 z"
     p-id="1217"
     data-spm-anchor-id="a313x.7781069.0.i1"
     class="selected"
     id="path6"
     inkscape:connector-curvature="0"
     style="fill:#c87137;stroke-width:1.50079656" />
  <path
     d="m 546.23304,1026.128 c -32.01699,0 -64.03398,-12.8068 -89.64758,-38.42041 L 72.381523,616.31046 C 53.171326,603.50366 46.767927,577.89006 46.767928,552.27647 L 78.784922,232.10652 c 6.4034,-32.01699 32.016998,-64.03399 64.033988,-64.03399 l 313.76655,-32.01698 c 19.21019,0 44.82379,6.40338 57.63058,19.21019 l 390.60734,371.39713 c 25.61359,25.6136 38.4204,57.63059 38.4204,89.64759 0,32.017 -12.80681,70.43738 -38.4204,96.05098 L 642.28403,981.30419 c -25.6136,32.01701 -57.63059,44.82381 -96.05099,44.82381 z m -83.24419,-832.44188 -307.36314,38.4204 c -12.8068,0 -12.8068,6.4034 -19.2102,12.80679 l -32.01699,320.16996 c 0,6.4034 0,6.4034 6.4034,12.80679 l 390.60733,371.39715 c 25.61359,25.61359 70.43738,25.61359 102.45438,0 L 866.40298,680.34444 c 12.8068,-12.80679 19.21021,-32.01698 19.21021,-51.22719 0,-19.21019 -6.40341,-38.42039 -19.21021,-51.22719 L 469.39225,200.08953 Z m -89.64757,384.20394 c -57.6306,0 -108.85779,-44.82379 -108.85779,-108.85778 0,-64.03398 44.82379,-108.85778 108.85779,-108.85778 64.03398,0 108.85778,44.8238 108.85778,108.85778 0,64.03399 -44.8238,108.85778 -108.85778,108.85778 z m 0,-153.68157 c -25.6136,0 -44.82381,19.21019 -44.82381,44.82379 0,25.61359 19.21021,51.22719 44.82381,51.22719 25.61359,0 44.82378,-19.21019 44.82378,-44.82379 6.4034,-32.017 -19.21019,-51.22719 -44.82378,-51.22719 z"
     p-id="1218"
     data-spm-anchor-id="a313x.7781069.0.i0"
     class=""
     id="path8"
     inkscape:connector-curvature="0"
     style="fill:#c87137;stroke-width:1.50079656" />
  <path
     d="m 911.22678,609.90706 c -6.4034,0 -12.8068,0 -19.21019,-6.4034 -12.80681,-12.8068 -12.80681,-32.01699 0,-44.82379 l 25.61359,-25.6136 c 25.6136,-32.01699 25.6136,-76.84078 0,-102.45438 L 559.03984,78.42495 c -6.4034,0 -6.4034,-6.4034 -12.8068,-6.4034 H 226.0631 c -12.8068,0 -19.2102,6.4034 -19.2102,12.806799 V 193.68612 c 0,19.21021 -12.8068,32.017 -32.01699,32.017 -19.2102,0 -25.6136,-12.80679 -25.6136,-32.017 V 84.828349 c 0,-38.420393 32.017,-70.437388 70.43738,-70.437389 h 320.16996 c 19.21019,0 38.42038,6.403399 51.22719,19.210197 L 949.64717,385.78809 c 51.22723,51.22719 51.22723,134.47138 6.4034,185.69857 l -25.6136,25.61361 c 0,12.80679 -12.80679,12.80679 -19.21019,12.80679 z"
     p-id="1219"
     data-spm-anchor-id="a313x.7781069.0.i4"
     class=""
     id="path10"
     inkscape:connector-curvature="0"
     style="fill:#c87137;stroke-width:1.50079656" />
</svg>
